<?xml version='1.0' encoding='utf-8'?>
<svg xmlns="http://www.w3.org/2000/svg" version="1.1" viewBox="0 0 1080 2132"> <g> <g fill="#f26655"> <path d="m82.999 599.52c-0.12676 0-0.24833 0.05034-0.33796 0.14004-0.08963 0.08963-0.13998 0.21115-0.13998 0.3379l1e-3 901c0 0.2639 0.21398 0.4779 0.47794 0.4779l901 1e-3c0.12675 0 0.24827-0.0503 0.3379-0.1399 0.0897-0.0896 0.14004-0.2113 0.14004-0.338l-9.7e-4 -901c0-0.264-0.21397-0.47797-0.47797-0.47797l-901-9.7e-4z"/> </g> <g fill="#313440"> <path d="m632.98 931.74 4.543-2.9371 4.5434-2.9369q2.0071 3.1047 4.014 6.2091-4.5432 2.937-9.0865 5.874-2.0067-3.1045-4.0138-6.2091"/> </g> <g fill="#3f434f"> <path d="m624 931.05 21.121-13.654q2.4136 3.7338 4.8271 7.4672-10.56 6.8272-21.121 13.654-2.4137-3.7338-4.8274-7.4676"/> </g> <g fill="#292b37"> <path d="m612.37 919.45 13.318-8.6094 13.318-8.6092q5.5004 8.5084 11.001 17.017-13.318 8.6094-26.635 17.219-5.5005-8.5084-11.001-17.017"/> </g> <g fill="#fdc00f"> <path d="m588.15 852.94c-13.074 8.4523-16.866 25.995-8.3771 39.126 0.307 0.475 0.7421 1.0254 1.1773 1.5759 2.4581 3.0059 5.5046 5.513 8.9115 7.351 3.6806 2.0174 9.2112 5.0575 13.663 7.409 2.0515 1.09 5.0708 2.2674 9.3066 9.4326l12.181-7.874 12.208-7.8928c-4.8128-6.8318-4.6288-10.04-4.7808-12.358-0.31666-5.0242-0.8002-11.287-1.1287-15.472-0.2959-3.8891-1.331-7.6963-3.0629-11.172-0.3236-0.6228-0.64696-1.2459-0.95386-1.7206-8.4883-13.131-26.069-16.858-39.144-8.4053z"/> </g> <g fill="#e2a305"> <path d="m617.69 914.73-4.8329 3.1248c-4.2542-7.1935-7.2552-8.3429-9.3069-9.433-4.4514-2.3513-9.9637-5.3636-13.645-7.3809-3.4246-1.8663-6.4712-4.3733-8.9295-7.3791-0.4349-0.5503-0.8701-1.1011-1.1772-1.5761-5.9419-9.1913-5.8648-20.531-0.83047-29.41-2.3102 8.0693-1.2839 17.071 3.6286 24.67 0.32517 0.50316 0.7782 1.0814 1.2777 1.6698 2.5845 3.2015 5.8413 5.8496 9.4582 7.8294 3.9191 2.1408 9.7975 5.3518 14.505 7.8542 2.1335 1.156 5.373 2.429 9.8518 10.031z"/> </g> <g fill="#3f434f"> <path d="m640.41 902.89c0.23486 0.36315 0.13596 0.823-0.22704 1.0578l-26.708 17.266c-0.36316 0.2345-0.82336 0.13574-1.058-0.22741l-0.8853-1.369c-0.2345-0.363-0.1357-0.823 0.2273-1.0577l26.68-17.248c0.36291-0.2349 0.823-0.136 1.0578 0.22704l0.885 1.369z"/> <path d="m644.74 909.79c0.23476 0.3632 0.136 0.82326-0.2273 1.058l-26.708 17.266c-0.36314 0.2345-0.8232 0.13575-1.058-0.2275l-0.88514-1.369c-0.23474-0.36315-0.1361-0.82299 0.2272-1.0578l26.68-17.248c0.36303-0.23513 0.8231-0.13623 1.0579 0.22693l0.88501 1.369z"/> <path d="m647.4 913.9c0.23465 0.36305 0.13585 0.82312-0.22742 1.0578l-26.708 17.266c-0.36328 0.2346-0.82325 0.13586-1.0581-0.22705l-0.88501-1.3692c-0.23473-0.3632-0.13613-0.82313 0.22727-1.058l26.68-17.247c0.36304-0.23511 0.8231-0.13637 1.0577 0.22693l0.88526 1.369z"/> </g> <g fill="#fed96f"> <path d="m608.48 850.73c-10.677-1.9317-19.429 4.321-19.775 4.5836-0.9974 0.7242-1.202 2.1236-0.49583 3.0935 0.72423 0.99755 2.124 1.2019 3.0937 0.4957 0.0835-0.05406 7.5593-5.4021 16.386-3.8194 5.8352 1.0605 10.948 4.925 15.284 11.51 0.59585 0.922 1.754 1.2428 2.7383 0.80456 0.12977-0.04446 0.24134-0.11656 0.3253-0.17066 1.0337-0.6682 1.3022-2.0303 0.63394-3.0638-5.0226-7.6466-11.15-12.162-18.191-13.434z"/> </g> <g> <path d="m333.66 1008.7q-22.801 2.4e-4 -42.81 6.0489-20.009 5.5841-35.365 16.752-14.89 11.168-23.732 27.919-8.376 16.752-8.3758 39.088l72.591 17.682q0-12.098 9.3066-20.94 9.3064-8.8407 23.266-8.8407 12.098 0 21.405 7.4453 8.8411 6.9802 8.8413 19.079 0 8.3753-6.9801 16.751-6.5144 8.3768-25.593 20.475-9.3063 5.5839-17.217 13.029-7.4449 6.9791-13.494 17.217-5.5842 9.7722-8.8412 22.801-3.2575 13.03-3.2574 30.247l-1.3e-4 13.96 64.215-4e-4q2.5e-4 -5.1181 0.46558-9.7718 0.93079-8.8413 3.7227-13.96 7.9108-12.563 17.217-20.939 9.3063-8.3765 18.613-15.356 9.307-6.5149 18.148-13.029 8.8413-6.0489 15.821-14.89 6.5145-8.8408 10.702-21.404 4.1881-12.099 4.1878-31.178 0-22.335-7.9102-40.484-7.4452-17.682-21.405-30.711-13.494-12.564-32.108-20.01-18.613-6.9798-40.949-6.9798zm-49.79 281.52v64.215l63.75 1e-3v-64.216z"/> </g> <g fill="#ffc8a6" fill-opacity=".99608"> <path d="m483.46 836.1-1.496-1.1324-1.496-1.1325c-8.5026 6.0574-17.005 12.115-25.508 18.173 2.1362 4.5798 4.2725 9.1595 6.4082 13.74 4.3937 2.6269 3.7877 3.7796 8.1813 6.407l13.91-36.055z"/> </g> <g fill-opacity=".99608"> <path d="m324.96 942.8-1.1779 8.2759q-4.0812 25.402-3.235 45.638 2.2048 21.026 11.292 25.976 11.874 12.918 82.831-4.9718l16.234 163.53 42.419-7.668q2.5492-90.288 0.53834-123.94-2.6376-43.007-11.436-53.475-7.5922-10.468-19.659-12.819-12.662-3.4942-53.44-3.7578l-1.9398-45.095-62.427 8.3093"/> </g> <g fill="#ffc8a6"> <path d="m498.04 923.06 6.3177-21.755-12.843-15.365-15.316 5.6426q4.819 5.3224 7.0461 5.8883 2.2595 0.93956 6.4129-1.3727l-6.0745 18.461 14.456 8.5007"/> </g> <g fill="#c9497b" fill-opacity=".99608"> <path d="m499.11 1062.2v1e-3l-4.8e-4 -1e-3h4.8e-4"/> </g> <g> <path d="m549.8 829.34c-1.7809-5.6473-4.6667-9.6603-8.6572-12.039-0.40966-0.42454-3.9169-1.5057-9.7633-4.7538-6.4402-3.5775-9.6139-6.1239-10.398-6.1931-2.855-1.1369-5.8829-1.4532-9.0402-0.74875-10.269 2.291-20.421 8.2971-30.467 17.854-2.131 2.0276-3.1108 7.5252-5.2456 9.948l4.9734 12.302c14.073 9.4246 16.345 12.822 23.889 14.902 3.7837 1.0428 7.963 1.7207 12.583 2.031 2.6533 0.1785 8.7704 0.0646 18.374-0.38463 1.4885-0.06983 2.8772 0.05933 4.1665 0.18153 3.0212 0.2861 5.852 1.2833 8.4878 3.0427 3.0003-2.4751 4.5222-6.5195 4.5569-12.134 0.05276-8.5296-1.0996-16.52-3.4474-23.971z"/> </g> <g fill="#ffc8a6"> <path d="m541.17 861.31v8.6e-4c-4.4333-5.5322-7.7394-8.1662-9.8912-8.3654-1.8068-0.167-4.2539 0.79956-7.4035 3.3604l-7.3049-2.6524-8.938 3.3524-2.6519-3.9574c3.7806-4.0489 5.8528-6.7688 6.3347-8.1189 0.59392-1.6648 0.0897-3.0209-1.6135-4.1338-2.0538-1.3424-4.0901-1.8757-6.1367-1.7379-1.3228 0.0894-3.4916 1.2017-6.4986 3.4984-0.64428 0.25986-1.396 0.21376-2.2898 0.16026-1.4478-0.087-15.868 3.1974-17.057-7.0049l-9.6936 37.983 9.4349-4.3694 6.6246 13.364c1.4404 5.694 2.9821 8.5931 4.4458 9.2058 1.4715 0.61606 4.1778-0.755 8.3553-4.5979 3.0594 0.1936 4.91-0.0369 5.6678-0.5253 0.88732-0.57165 1.4358-1.8601 1.5415-4.0402 1.344 2.0324 2.4912 2.9228 3.4507 2.9362 0.99257 0.01394 2.7133-0.85544 5.1774-2.8734 2.233 3.5789 3.7711 4.9026 4.773 4.1748 0.49207-0.3574 1.1504-1.1025 1.8386-2.4551l4.4455-9.8121 2.0844-1.4126c2.2332-0.26183 4.1751-1.137 5.9261-2.4995 1.6776-1.3049 4.8263-4.4115 9.3489-9.448l0.02977-0.0326z"/> </g> <g fill-opacity=".99608"> <path d="m526.03 907.65v6.1e-4 -6.1e-4 6.1e-4"/> </g> <g fill="#fff"> <path d="m391.37 978.94-0.72162 1.2793c-4.7212 9.8426-14.424 14.811-28.887 16.818-11.428 1.5856-26.234-0.20495-44.734-7.2702 2.0717-31.431 8.5315-55.647 19.104-72.818 17.332-28.152 39.207-50.392 66.452-65.571 18.093-10.079 40.435-14.578 67.635-11.026l2.4255 24.266 1.6588 8.989-12.264 4.7352c-0.7652 8.3126-3.7761 15.078-8.7274 20.576-0.47466 0.5272-2.3408 2.6139-6.4234 5.3168-11.114 7.3572-19.002 12.435-23.234 15.91-3.8879 3.192-7.259 6.8498-10.325 10.828-2.3686 3.0734-5.2884 8.3545-9.2011 15.682-0.7193 1.3477-5.1867 11.97-12.757 32.284z"/> </g> <g fill="#5396be" fill-opacity=".99608"> <path d="m386.65 751.78v9.7e-4 -8.3e-4 -1.4e-4 9.7e-4 -9.7e-4 1.4e-4q0-1.4e-4 0-1.4e-4"/> </g> <g fill="#fff"> <path d="m443.76 878.93-10.666-11.037 27.613 4.1948c9.5891 18.298 1.5587 32.889-5.8116 52.146-2.9992 7.8366-14.259 48.238 29.138-13.011l15.952 6.2329c7.0448-0.1804-29.866 82.938-61.639 65.305-21.053-11.683-20.563-69.735-24.868-88.048l30.282-15.783z"/> </g> <g fill-opacity=".99608"> <path d="m458.09 1168.8 2.6289 0.0211q11.859 0.0836 17.176 0.6311 6.8699 0.6737 9.8682 2.0387 1.445 0.6295 2.422 1.4442 0.71728 0.3172 2.0911 2.7748 1.172 2.5387 0.66155 8.1422l-64.66 0.8612 4.6632-16.742 25.149 0.8292"/> </g> <g fill="#ffc8a6" fill-opacity=".99608"> <path d="m492.95 804.9v9.6e-4 -7.6e-4 -2e-4"/> <path d="m473.34 916.56v8e-4 -8e-4 8e-4"/> </g> <g fill="#2a4a59"> <path d="m731.6 1070.3 24.135-0.6421 24.135-0.6413q-0.1636-6.1326-0.3269-12.265-24.135 0.6448-48.269 1.2887 0.1632 6.13 0.3265 12.26"/> </g> <g fill="#00aec7"> <path d="m737.4 818.78 0.00624 0.0022q0.0438 0.0011 0.0776 0.03906 0.01 0.00439 0.0507 0.07164 0.0155 0.02943 0.0299 0.0662 0.0294 0.0738 0.0492 0.1672 0.0216 0.0968 0.0299 0.2274 0.00536 0.14944-0.0038 0.2304-0.0083 0.094-0.0283 0.1688-0.0164 0.0708-0.05764 0.14-0.03772 0.05653-0.08642 0.05885-0.0857 0.00708-0.16419-0.17885-0.01489-0.03734-0.02745-0.08006-0.02845-0.10914-0.0309-0.13474-0.0165-0.0957-0.0215-0.2044-0.0046-0.1124 0.0043-0.2058 0.00426-0.047 0.0112-0.0891 0.0203-0.1017 0.02773-0.11596 0.05357-0.16064 0.13343-0.16284z"/> </g> <g fill="#fff"> <path d="m722.63 810.96v0.00146 0.00157-0.00303z"/> </g> <g fill="#7d8b96"> <path d="m734.67 830.38 2.0957-0.12046 2.0952-0.121q0.691 11.865 1.3818 23.731-2.0953 0.1238-4.1908 0.2467-0.691-11.868-1.382-23.736"/> <path d="m737.4 818.78 0.00624 0.0022q0.0438 0.0011 0.0776 0.03906 0.01 0.00439 0.0507 0.07164 0.0155 0.02943 0.0299 0.0662 0.0294 0.0738 0.0492 0.1672 0.0216 0.0968 0.0299 0.2274 0.00536 0.14944-0.0038 0.2304-0.0083 0.094-0.0283 0.1688-0.0164 0.0708-0.05764 0.14-0.03772 0.05653-0.08642 0.05885-0.0857 0.00708-0.16419-0.17885-0.01489-0.03734-0.02745-0.08006-0.02845-0.10914-0.0309-0.13474-0.0165-0.0957-0.0215-0.2044-0.0046-0.1124 0.0043-0.2058 0.00426-0.047 0.0112-0.0891 0.0203-0.1017 0.02773-0.11596 0.05357-0.16064 0.13343-0.16284z"/> </g> <g fill="#2a4a59"> <path d="m735.64 812.99-0.8479 0.1023q-1.6593 0.26354-3.0314 1.0055-0.6858 0.3706-1.2997 0.85997-0.3589 0.17893-1.6667 1.7226-0.47886 0.6381-0.83056 1.3335-0.7687 1.7901-0.7705 2.2164-0.3362 1.5879-0.11305 3.3094 0.5343 3.4456 3.299 5.7735 0.26125 0.32154 1.9734 1.2214 0.7085 0.31897 1.4851 0.52039 1.4669 0.46204 3.5492 0.21754 3.3731-0.3606 5.9296-3.3062 0.9913-1.2137 1.5114-2.6988 0.54225-1.2904 0.52735-3.6314-0.14515-1.7312-0.7666-3.1748-0.3108-0.7215-0.7412-1.372-0.1403-0.36976-1.5591-1.7881-0.60925-0.5418-1.2758-0.95804-1.7171-0.92626-2.1299-0.96032-1.5062-0.4502-3.2428-0.39294z"/> </g> <g fill="#d9f1e4"> <path d="m652.08 896.25-9.2634 12.667 3.9099 21.665-6.1093 6.9036-28.993-7.843-4.2002 13.032 21.285 5.8139 30.527 6.2133-7.1549-58.451"/> </g> <g fill="#2a4a59"> <path d="m725.07 897.91 22.197-5.3439q1.5519 6.4435 3.104 12.887-11.098 2.6747-22.195 5.3491-1.5526-6.4461-3.1053-12.892"/> <path d="m731.21 908.73 6.8618-1.6515 6.8621-1.6514q0.34619 1.4371 0.69224 2.8745-6.8614 1.6539-13.723 3.3081l-0.6932-2.8798"/> <path d="m728.07 912.46 21.883-5.2679q1.4202 5.8959 2.8402 11.792-10.941 2.6363-21.882 5.2735l-2.8412-11.797"/> </g> <g fill-opacity=".99608"> <path d="m774.46 909.21-9.6e-4 0.0022 6.1e-4 -0.00125 3.5e-4 -9.5e-4z"/> <path d="m689.56 971.89v5e-4 7.4e-4 -0.00124z"/> </g> <g fill="#7d8b96" fill-opacity=".99608"> <path d="m773.33 1004.7 1.3e-4 0.0013v4e-4l-1.3e-4 -0.0017z"/> </g> <g fill="#d9f1e4"> <path d="m768.48 1047.3v0.0029 0.0025 0.0027l3.2192-10.441c-31.976-39.166-31.85-33.478-3.5692-2.7394 14.914 16.21 21.933-3.0844 21.814-3.7965-0.34093-2.0302-1.1934-6.0598-2.0838-12.179-1.1446-7.865-1.6488-22.93-2.4203-45.161-0.25086-7.2256-1.0644-11.381-1.2362-12.585-0.54495-3.8088-1.8048-8.4256-3.7934-13.94-0.47364-1.3139-2.0414-4.5908-5.3314-9.55-3.2572-4.9091-8.8842-10.612-16.633-17.274l-4.9435-10.601-31.843 11.826 1.5754 9.5424c-10.301 19.756-15.532 34.481-16.606 44.088-1.1803 10.547 4.2999 52.491 5.0272 63.633l35.935-6.4909 12.131 6.8996 8.7584 8.7622v0.0029z"/> </g> <g fill-opacity=".99608"> <path d="m691.77 990.59v6.4e-4 7e-4 -0.00134z"/> </g> <g fill="#d9f1e4"> <path d="m723.38 929.51v7.6e-4l2.183 6.5749q-3.6301 2.1588-7.2599 4.3172l5.0769-10.893z"/> <path d="m721.12 937.79v7.6e-4l-1.0261 3.5261-3.9132 2.8135q1.4772-2.7494 2.9542-5.4986l1.9851-0.8418z"/> <path d="m701.75 845.35 65.519-3.8124q1.7394 29.869 3.4783 59.738-32.759 1.9088-65.518 3.8179-1.739-29.871-3.4787-59.743"/> </g> <g fill="#2a4a59"> <path d="m750.32 869.51-0.01366 1.5352q-0.463 4.6645-3.8507 7.6428-3.4125 2.9768-8.286 2.7351-4.6647-0.4618-7.6428-3.85-0.95444-1.0957-1.608-2.4147l-0.5642-1.3633q-0.4817-1.4126-0.5774-2.9726-0.1577-4.797 2.8374-8.1624 2.9952-3.3654 7.7778-3.765 4.7968-0.1582 8.1623 2.8371 3.3658 2.995 3.7654 7.7778"/> <path d="m702.54 889.47 6.719-0.3601 6.7193-0.3596q0.21377 3.9706 0.42737 7.9408-6.7189 0.363-13.437 0.7257-0.21433-3.9733-0.4283-7.9468"/> <path d="m734.49 1046.3 20.636 0.0012 20.636 0.0014q0 12.643 0 25.287-20.636 0.0014-41.272 0.0026 0-12.646 0-25.292"/> </g> <g fill="#535d66"> <path d="m744.62 1032.4c28.808 2.8043 34.876 4.3764 40.852 5.9436 1.1729 0.3075 2.2247 1.1791 2.8684 2.5564z"/> </g> <g fill="#d9f1e4"> <path d="m707.52 1026.1 84.576-4.7716q0.82444 14.603 1.6489 29.207-42.288 2.3883-84.576 4.7768-0.82456-14.606-1.6489-29.212"/> <path d="m790.27 1065.8v0.0012 0.0014 0.0013 0.0012 0.0013c6.0428 27.533 5.0889 41.185 5.0889 41.185-0.9956 14.25-5.2118 23.004-11.339 26.374-4.8738 5.3451-49.068 5.5313-57.515-5.0845-10.468-13.154-4.35-59.868-4.35-59.868l68.115-2.612v0.0012-0.0012 0.0012-0.0012z"/> </g> <g fill="#2a4a59"> <path d="m772.49 958.8-0.15955 2.3698q-1.1332 7.1611-6.6323 11.455-5.5371 4.2903-13.041 3.4794-7.1612-1.1332-11.455-6.6325-1.3756-1.7772-2.2663-3.8736l-0.74842-2.1546q-0.61694-2.2247-0.62378-4.643 0.18724-7.4206 5.1147-12.348 4.9273-4.9275 12.348-5.1146 7.4207 0.18713 12.348 5.1146 4.9276 4.9274 5.1148 12.348"/> <path d="m677.6 1000.9 35.592-27.242 35.592-27.241q8.9216 11.656 17.844 23.312-35.592 27.242-71.184 54.484-8.922-11.656-17.844-23.313"/> <path d="m636.55 952.76 10.396-9.1298 10.396-9.1295q26.884 30.613 53.768 61.225-10.396 9.1304-20.792 18.26-26.884-30.613-53.769-61.226"/> </g> <g fill="#d9f1e4"> <path d="m706.28 1005-0.0725 1.0756q-0.51454 3.2514-3.011 5.2004-2.5139 1.9477-5.9207 1.5792-3.2511-0.514-5.2004-3.0108-0.62463-0.80675-1.0288-1.7586l-0.33985-0.97827q-0.28015-1.0101-0.2832-2.1075 0.08505-3.3693 2.322-5.6065 2.2373-2.2367 5.6061-2.322 3.369 0.08535 5.6062 2.322 2.237 2.2372 2.3222 5.6065"/> <path d="m658.44 950.51-0.00525 0.79981q-0.2345 2.4294-1.9945 3.9844-1.7731 1.555-4.3112 1.4356-2.4294-0.2346-3.9847-1.9944-0.49866-0.5693-0.8407-1.2561l-0.2955-0.7084q-0.25296-0.73483-0.3046-1.5472-0.0886-2.4976 1.4667-4.2538 1.555-1.7565 4.0448-1.9712 2.4973-0.08886 4.2539 1.4662 1.7567 1.5555 1.971 4.0452"/> </g> <g fill="#2a4a59"> <path d="m700.07 854.03 18.781-0.7642 1.0224 25.131-18.781 0.76425-1.0226-25.131"/> </g> <g fill="#24fee3"> <path d="m700.38 863.33 13.406-0.3158q0.10607 4.4876 0.21302 8.9753-6.7029 0.1602-13.406 0.3207-0.10655-4.4904-0.2129-8.9802"/> </g> <g fill="#2a4a59"> <path d="m723.17 1092-0.0296 0.4614q-0.21066 1.3951-1.2332 2.2309-1.0294 0.8353-2.4244 0.6773-1.3312-0.2202-2.1294-1.2913-0.25596-0.3463-0.42137-0.7545l-0.13903-0.4194q-0.1149-0.4333-0.1161-0.9044 0.0347-1.4454 0.9508-2.405 0.91615-0.9596 2.2958-0.9961 1.3796 0.0365 2.2956 0.9961 0.91626 0.9596 0.95096 2.405"/> <path d="m724.28 1041.9-0.14539 0.3722q-0.54405 1.0914-1.6434 1.5026-1.1054 0.4076-2.2684-0.1018-1.0917-0.5435-1.5024-1.6432-0.40808-1.1059 0.10155-2.2685 0.54383-1.0918 1.6434-1.5023 1.1051-0.4085 2.2681 0.1015 1.0918 0.5441 1.5024 1.6436 0.13075 0.3547 0.16785 0.7361l0.0111 0.3835q-0.01354 0.3883-0.13476 0.7763"/> <path d="m784.67 1040.2-0.14526 0.3719q-0.24182 0.4856-0.59337 0.8361-0.0707 0.1085-0.589 0.4503-0.2167 0.1247-0.4613 0.2163-0.2455 0.0909-0.49415 0.1357-0.62341 0.074-0.75159 0.0341-0.50561-0.045-1.0225-0.2714-0.24255-0.1208-0.45153-0.2689-0.12547-0.057-0.55127-0.5066-0.3169-0.379-0.4994-0.8678-0.3629-0.9829-6e-4 -2.0102 0.19604-0.5293 0.52636-0.9102 0.42884-0.4507 0.54774-0.5007 0.203-0.1414 0.4338-0.25 0.1089-0.0816 0.7315-0.236 0.2484-0.045 0.49973-0.0453 0.50257 0 1.0166 0.1814 0.52881 0.1956 0.90977 0.5263 0.1923 0.1617 0.35073 0.351 0.10037 0.0779 0.40003 0.6305 0.21914 0.467 0.26709 0.9735 0.06175 0.5322-0.12342 1.16"/> </g> <g fill="#d9f1e4"> <path d="m740.85 1111.8q0 91.874 0 183.75 18.048-6e-4 36.096-0.0012 0-91.873 0-183.74l-36.096-0.0013z"/> <path d="m738.93 1279.2 21.137 5e-4 21.137 7e-4q0 31.689 0 63.378-21.137 5e-4 -42.274 0.0011 0-31.69 0-63.381"/> </g> <g fill="#2a4a59"> <path d="m767.56 1295.4-0.08705 1.1915q-0.61924 3.6007-3.6236 5.7595-3.025 2.1573-7.1247 1.7496-3.9126-0.57-6.2582-3.3349-2.344-2.7843-1.9008-6.5572 0.619-3.6007 3.6235-5.7598 3.0252-2.1572 7.1247-1.7495 3.9125 0.5701 6.2582 3.3353 0.75146 0.8936 1.2383 1.9476l0.40883 1.0835q0.33707 1.1184 0.34082 2.3344"/> <path d="m721.14 1337.4 64.188-0.0444q0.0049 7.2255 0.01 14.451-32.094 0.0233-64.187 0.0469l-0.0104-14.453"/> <path d="m778.03 1101-0.13867 2.0646q-0.98779 6.2397-5.7792 9.9806-4.8247 3.7384-11.363 3.0316-6.2397-0.9872-9.9811-5.7786-1.1986-1.5494-1.9746-3.3757l-0.6522-1.8778q-0.5375-1.9381-0.5436-4.0447 0.16323-6.4658 4.4569-10.759 4.2934-4.2934 10.759-4.4568 6.4659 0.1634 10.76 4.4568 4.2934 4.2935 4.4565 10.759"/> <path d="m760.1 1212.6-0.08557 1.273q-0.60867 3.8464-3.5624 6.1526-2.9744 2.3043-7.0046 1.8686-3.8466-0.6088-6.1528-3.5622-0.739-0.955-1.2174-2.0808l-0.40184-1.1574q-0.33156-1.1948-0.33521-2.4938 0.10059-3.9857 2.7474-6.6324 2.6467-2.647 6.6326-2.7475 3.9858 0.1005 6.6325 2.7475 2.6468 2.6467 2.7473 6.6324"/> <path d="m754.41 1212.2q0 1.8499 0 3.6997 11.265 0 22.531-1e-4 0.00966-1.8497 0.00966-3.6995l-0.00966 0.0014-8.8314 0.0013-13.7-0.0028z"/> <path d="m740.85 1144.4q0 3.683 0 7.3658 18.043 0 36.087-2e-4 0.00966-3.682 0.00966-7.3642l-0.00966 0.0014-15.709 0.0012-20.368-4e-3z"/> <path d="m737.62 1149.4 41.784-0.8084q0.0734 3.7959 0.14687 7.5915-20.892 0.4044-41.784 0.8089-0.07336-3.796-0.14686-7.592"/> <path d="m316.35 839.1v2.4e-4l6e-5 2.6e-4 -6e-5 -2.6e-4v-2.4e-4 2.4e-4l6e-5 2.6e-4q-6e-5 -2.6e-4 -6e-5 -5e-4"/> </g> <g> <path d="m882.74 1353.6-3.1118 0.2269q-22.124 0.6857-129.47 1.0966-108.09 0.4107-254.56 0.3331-139.79-0.1085-223.6-0.635-26.854-0.1702-44.239-0.3708l-14.612-0.2062q-12.041-0.2132-12.177-0.4446 3.6554-0.7102 99.842-1.1822 96.187-0.4718 241.04-0.4896 144.85 0.0178 241.04 0.4896 96.187 0.472 99.842 1.1822"/> </g> </g> </svg>